<?xml version="1.0" encoding="UTF-8"?>
<svg version="1.1" xmlns="http://www.w3.org/2000/svg" width="1024" height="1024">
<path d="M0 0 C337.92 0 675.84 0 1024 0 C1024 337.92 1024 675.84 1024 1024 C686.08 1024 348.16 1024 0 1024 C0 686.08 0 348.16 0 0 Z " fill="#000000" transform="translate(0,0)"/>
<path d="M0 0 C17.716875 -0.020625 35.43375 -0.04125 53.6875 -0.0625 C59.25971436 -0.071604 64.83192871 -0.08070801 70.57299805 -0.09008789 C77.43322754 -0.09460449 77.43322754 -0.09460449 80.65559387 -0.09544373 C82.88252462 -0.09696862 85.1094546 -0.10046326 87.33638 -0.10557556 C128.80167537 -0.19592023 128.80167537 -0.19592023 144.16015625 13.99609375 C151.64844865 21.62435424 155.99831466 32.26142558 156.25 43 C156.05120216 54.92787058 152.39198353 64.08196929 144.4375 72.8125 C143.633125 73.534375 142.82875 74.25625 142 75 C140.88625 76.051875 140.88625 76.051875 139.75 77.125 C136.07750733 79.62897228 132.24535673 80.7791131 128 82 C128 82.66 128 83.32 128 84 C128.58265625 84.06316406 129.1653125 84.12632812 129.765625 84.19140625 C140.48496549 85.7925656 149.45460345 91.1667138 156.3125 99.5390625 C163.80741688 110.46914962 164.9359269 122.00247999 164 135 C161.12366744 148.83926867 153.23490426 160.16203925 141.75 168.25 C134.77199355 172.21894339 126.66508933 173.28743362 118.82705688 174.53225708 C117.03792388 174.82827316 115.25300843 175.15229224 113.47610474 175.51455688 C102.12344151 177.63639956 90.70391638 177.25130903 79.19921875 177.1953125 C77.16719676 177.19236599 75.13517324 177.1903293 73.10314941 177.18920898 C65.63124288 177.17879204 58.15936901 177.15086967 50.6875 177.125 C33.960625 177.08375 17.23375 177.0425 0 177 C0 118.59 0 60.18 0 0 Z " fill="#D43D84" transform="translate(764,428)"/>
<path d="M0 0 C16.83 0 33.66 0 51 0 C60.08577818 12.49294499 60.08577818 12.49294499 63.8125 18.1875 C67.19589842 23.3096801 70.63052329 28.39049849 74.125 33.4375 C79.60266425 41.35767683 84.93556308 49.37266286 90.25439453 57.40014648 C94.41333976 63.66565843 98.66280065 69.85673685 103 76 C104.16735071 77.66618762 105.33400394 79.33286411 106.5 81 C107.655 82.65 108.81 84.3 110 86 C112.31 89.3 114.62 92.6 117 96 C117.33 64.32 117.66 32.64 118 0 C134.83 0 151.66 0 169 0 C169 58.74 169 117.48 169 178 C152.17 178 135.34 178 118 178 C109.00538154 165.63239961 109.00538154 165.63239961 105.44921875 160.36328125 C105.06857269 159.80065079 104.68792664 159.23802032 104.29574585 158.65834045 C103.09132046 156.87752005 101.88940969 155.09501897 100.6875 153.3125 C99.00348571 150.82101795 97.31816258 148.33042234 95.6328125 145.83984375 C95.22557449 145.23767029 94.81833649 144.63549683 94.39875793 144.01507568 C91.31084694 139.45150033 88.19609329 134.90727617 85.0625 130.375 C81.36095149 125.01550307 77.72900526 119.61303468 74.125 114.1875 C69.77615656 107.64889438 65.40875637 101.12339464 61 94.625 C60.19006592 93.42073364 60.19006592 93.42073364 59.36376953 92.19213867 C58.85185059 91.44037354 58.33993164 90.6886084 57.8125 89.9140625 C57.36519531 89.2535791 56.91789062 88.5930957 56.45703125 87.91259766 C54.71202023 85.53338173 54.71202023 85.53338173 51 82 C51 113.68 51 145.36 51 178 C34.17 178 17.34 178 0 178 C0 119.26 0 60.52 0 0 Z " fill="#F13946" transform="translate(393,427)"/>
<path d="M0 0 C17.82 0 35.64 0 54 0 C55 1 55 1 55.12025452 3.47401428 C55.11803391 4.57321701 55.11581329 5.67241974 55.11352539 6.80493164 C55.11344986 8.04614273 55.11337433 9.28735382 55.11329651 10.56617737 C55.10818911 11.9308374 55.1029731 13.29549702 55.09765625 14.66015625 C55.095792 16.04878183 55.09436813 17.43740807 55.09336853 18.82603455 C55.08954387 22.48721115 55.07971403 26.1483483 55.06866455 29.80950928 C55.05844932 33.54292253 55.05381597 37.27634233 55.04882812 41.00976562 C55.0386219 48.33987863 55.01905026 55.6698832 55 63 C74.47 63 93.94 63 114 63 C113.98839844 58.53597656 113.97679687 54.07195312 113.96484375 49.47265625 C113.9584169 45.92263568 113.95299264 42.37261675 113.94824982 38.82259369 C113.94295992 35.06994976 113.93588609 31.31732825 113.92456055 27.56469727 C113.91372859 23.95318313 113.90772251 20.34169079 113.90512276 16.73016167 C113.90326906 15.34939671 113.89964951 13.968633 113.89426994 12.58787727 C113.88705553 10.66024048 113.88659191 8.73258193 113.88647461 6.80493164 C113.884254 5.70572891 113.88203339 4.60652618 113.87974548 3.47401428 C114 1 114 1 115 0 C132.82 0 150.64 0 169 0 C169 58.74 169 117.48 169 178 C151.18 178 133.36 178 115 178 C114 177 114 177 113.87974548 174.18431091 C113.88196609 172.92522415 113.88418671 171.66613739 113.88647461 170.36889648 C113.88632858 169.67624695 113.88618256 168.98359741 113.8860321 168.2699585 C113.88673126 165.97030554 113.89452372 163.67073263 113.90234375 161.37109375 C113.90420792 159.78068588 113.90563183 158.19027743 113.90663147 156.59986877 C113.91045671 152.4060407 113.92028705 148.21224705 113.93133545 144.01843262 C113.94334403 138.99076295 113.94795178 133.96308181 113.95378876 128.93540192 C113.96349881 121.29024398 113.98265529 113.64516162 114 106 C94.53 106 75.06 106 55 106 C55.01160156 111.11371094 55.02320313 116.22742188 55.03515625 121.49609375 C55.04026311 124.7272148 55.04507689 127.95833091 55.04882812 131.18945312 C55.05481616 136.3230085 55.06191538 141.45654612 55.07543945 146.59008789 C55.08626975 150.726794 55.09227714 154.86348108 55.09487724 159.00020027 C55.09673124 160.58192304 55.10035136 162.16364471 55.10573006 163.74535942 C55.1129424 165.95322838 55.11399086 168.16101773 55.11352539 170.36889648 C55.115746 171.62798325 55.11796661 172.88707001 55.12025452 174.18431091 C55 177 55 177 54 178 C36.18 178 18.36 178 0 178 C0 119.26 0 60.52 0 0 Z " fill="#FA512C" transform="translate(19,427)"/>
<path d="M0 0 C19.8 0 39.6 0 60 0 C64.53039026 11.32597565 69.00178646 22.50683022 73 34 C77.81989396 47.59205221 77.81989396 47.59205221 83.04077148 61.03222656 C85.47300307 67.0370147 87.76108468 73.06309924 89.875 79.1875 C92.40757994 86.52155305 95.25283211 93.70385181 98.17260742 100.89135742 C100.35782538 106.30189587 102.30402048 111.73767974 104.08203125 117.296875 C105.40774383 121.20067545 107.03795111 124.95839893 108.65234375 128.75 C110.99993803 134.41144476 113.09666901 140.16695218 115.22509766 145.91357422 C116.26026843 148.70077316 117.30763405 151.48331928 118.35522461 154.26586914 C119.1090493 156.27009127 119.8597891 158.27543912 120.609375 160.28125 C121.49033907 162.63708651 122.37526752 164.99144753 123.265625 167.34375 C123.81476563 168.81328125 123.81476563 168.81328125 124.375 170.3125 C124.69210937 171.15425781 125.00921875 171.99601563 125.3359375 172.86328125 C126 175 126 175 126 178 C107.19 178 88.38 178 69 178 C62 156 62 156 60 149 C39.54 148.67 19.08 148.34 -2 148 C-3.32 153.61 -4.64 159.22 -6 165 C-7.65 168.96 -9.3 172.92 -11 177 C-28.82 177 -46.64 177 -65 177 C-63.87614536 168.00916291 -63.87614536 168.00916291 -61.9609375 163.453125 C-61.54859863 162.4528125 -61.13625977 161.4525 -60.71142578 160.421875 C-60.04989502 158.85179687 -60.04989502 158.85179687 -59.375 157.25 C-55.75530627 148.45801925 -52.34985483 139.65123164 -49.33349609 130.63378906 C-47.76427846 125.98938677 -45.9736521 121.53472166 -43.91162109 117.08569336 C-42.66089196 114.22415641 -41.73213334 111.2879167 -40.78125 108.31640625 C-39.68541224 105.06724728 -38.38095412 101.91428988 -37.0625 98.75 C-35.86794189 95.65820254 -34.83643252 92.52959419 -33.79882812 89.38232422 C-32.52427551 85.58125929 -31.14100154 81.82222162 -29.75 78.0625 C-29.29548462 76.82935059 -29.29548462 76.82935059 -28.83178711 75.57128906 C-26.53618598 69.3729881 -24.13220676 63.22174595 -21.70288086 57.07495117 C-18.85458306 49.78448533 -16.32114403 42.38843267 -13.84008789 34.96582031 C-12.15426968 29.99846752 -10.28113412 25.35488093 -7.8503418 20.70703125 C-6.77628133 18.55089263 -6.10492182 16.39065307 -5.5 14.0625 C-4.16959749 8.95970616 -2.24939264 5.06113344 0 0 Z " fill="#F83F35" transform="translate(261,427)"/>
<path d="M0 0 C20.13 0 40.26 0 61 0 C64.33846154 6.67692308 64.33846154 6.67692308 65.375 10.5 C67.96953866 19.50617347 71.12826801 28.30466865 75.04296875 36.8203125 C76.48913168 40.11402236 77.67154492 43.49171745 78.87890625 46.87890625 C80.15537421 50.43255747 81.48072759 53.96683253 82.8125 57.5 C85.09067984 63.55230368 87.3342436 69.61665053 89.5625 75.6875 C91.9097864 82.07754758 94.30629358 88.44501915 96.765625 94.79296875 C98.13624354 98.35397451 99.47706313 101.92570343 100.8125 105.5 C103.18326659 111.84298329 105.58539304 118.17358126 108 124.5 C111.36591097 133.32130953 114.69492691 142.15574732 118 151 C119.08259647 153.89610958 120.16609259 156.79188084 121.25 159.6875 C121.49637207 160.3472583 121.74274414 161.0070166 121.99658203 161.68676758 C123.00064788 164.36901813 124.01124522 167.02537672 125.171875 169.64453125 C126 172 126 172 126 177 C107.52 177 89.04 177 70 177 C64.41643324 161.36601307 64.41643324 161.36601307 62.75 155.1875 C61.96393032 151.28819703 61.96393032 151.28819703 60 148 C58.09756238 147.90608704 56.19161541 147.88256342 54.28686523 147.88647461 C52.45507973 147.88658791 52.45507973 147.88658791 50.58628845 147.88670349 C49.24372314 147.89181089 47.90115825 147.89702689 46.55859375 147.90234375 C45.19238842 147.90420801 43.82618243 147.90563187 42.4599762 147.90663147 C38.85798305 147.91045606 35.25603 147.92028583 31.65405273 147.93133545 C27.98096255 147.94155084 24.30786591 147.94612936 20.63476562 147.95117188 C13.42315877 147.96190816 6.211585 147.97898386 -1 148 C-2.31458266 152.08266582 -3.62630532 156.16624495 -4.9375 160.25 C-5.49727539 161.98830078 -5.49727539 161.98830078 -6.06835938 163.76171875 C-6.42607422 164.87675781 -6.78378906 165.99179687 -7.15234375 167.140625 C-7.48226318 168.16704102 -7.81218262 169.19345703 -8.15209961 170.25097656 C-8.83956417 172.47984238 -9.43429116 174.73716464 -10 177 C-28.15 177 -46.3 177 -65 177 C-64.22784553 170.8227642 -63.82889978 167.97273857 -61.375 162.75 C-58.35416394 156.0184735 -55.88608363 149.18466795 -53.53662109 142.19238281 C-52.17699553 138.18988959 -50.73281115 134.30393298 -48.9765625 130.45703125 C-47.32027013 126.82443593 -45.99765534 123.17802662 -44.77734375 119.37939453 C-43.30034045 114.85839133 -41.63309621 110.40395675 -40 105.9375 C-39.65710938 104.99583984 -39.31421875 104.05417969 -38.9609375 103.08398438 C-33.39988057 87.83352863 -33.39988057 87.83352863 -30.75 81.75 C-28.04749281 75.33256602 -25.78661635 68.78500527 -23.51660156 62.20605469 C-22.09560701 58.09803228 -20.66539562 54.01696282 -19 50 C-16.98558234 45.13254445 -15.28710507 40.16299019 -13.5625 35.1875 C-9.42697283 23.27402585 -4.8565221 11.65565304 0 0 Z " fill="#E13A69" transform="translate(632,428)"/>
<path d="M0 0 C5.82423949 5.06139731 9.42890544 11.58602615 10.41796875 19.23046875 C11.21299788 38.59050242 -1.01947816 54.6027156 -13.45068359 68.32617188 C-21.72989692 77.27074902 -30.38250134 85.49755291 -40 93 C-41.07842422 93.87824569 -42.15516948 94.75855596 -43.23046875 95.640625 C-65.08196842 113.42251337 -89.91492231 127.87516342 -119 125 C-130.42821657 122.87994665 -141.788676 116.18750413 -149 107 C-155.96082318 96.76178924 -159.59222636 87.08964036 -159.5 74.6875 C-159.49355469 73.77178223 -159.48710937 72.85606445 -159.48046875 71.91259766 C-159.04324819 55.6059967 -150.33211006 43.50620069 -138.87890625 32.47265625 C-118.64860847 15.09710877 -91.17781616 4.37193736 -65.64453125 -2.0625 C-62.09170661 -2.92160939 -62.09170661 -2.92160939 -59.07421875 -4.0234375 C-40.47617612 -9.93132906 -16.52609181 -11.62451191 0 0 Z " fill="#FB7800" transform="translate(221,669)"/>
<path d="M0 0 C19.00725233 13.99184542 28.18655905 39.40183143 32 62 C32.22171875 63.03125 32.4434375 64.0625 32.671875 65.125 C37.58442279 87.98338563 41.28351678 112.8929741 36 136 C35.72542969 137.25876953 35.72542969 137.25876953 35.4453125 138.54296875 C31.78956618 152.73719366 23.00099544 165.97664518 10.46484375 173.75390625 C-1.90835003 180.00913417 -16.82177333 182.54495757 -30.25 178.4375 C-44.64716231 172.92245798 -54.47024482 163.83918261 -61 150 C-61.38027344 149.20851563 -61.76054687 148.41703125 -62.15234375 147.6015625 C-76.7751393 114.38298545 -66.77458264 66.53193098 -54.18652344 33.890625 C-52.65298116 30.15083416 -50.89573644 26.56718858 -49 23 C-48.61457031 22.20078125 -48.22914063 21.4015625 -47.83203125 20.578125 C-42.42020034 9.86528565 -33.89362823 1.69488981 -23.0625 -3.375 C-14.69295912 -5.08306957 -7.45685885 -4.30247999 0 0 Z " fill="#1AE121" transform="translate(527,844)"/>
<path d="M0 0 C14.41789915 10.11595583 22.21348756 24.73752884 25.25 41.9375 C28.68664711 70.52415549 23.81062027 99.20462794 16 126.6875 C15.75685059 127.55592529 15.51370117 128.42435059 15.26318359 129.3190918 C10.44956155 146.01505926 1.83298732 164.65839582 -13.75 173.625 C-20.36051252 177.13237625 -27.21330513 177.78414217 -34.5234375 176.109375 C-45.83393924 172.18459522 -54.44347128 162.6598596 -59.77734375 152.203125 C-61.60629619 148.40132143 -63.34400282 144.56764724 -65 140.6875 C-65.32258789 139.9437915 -65.64517578 139.20008301 -65.97753906 138.43383789 C-79.74603472 105.56635824 -87.89823553 58.31857404 -74.25 24.125 C-67.6898153 10.15035594 -57.2655378 0.53525309 -43 -5.3125 C-28.81238709 -10.03093163 -12.72702248 -7.71966937 0 0 Z " fill="#1AE121" transform="translate(539,7.3125)"/>
<path d="M0 0 C18.70362173 10.69613368 35.09536749 27.83521159 48.3125 44.6796875 C49.20571427 45.78361898 50.10030762 46.88643569 50.99609375 47.98828125 C68.43032791 69.5729448 82.76077084 92.98367579 80.3125 121.6796875 C77.44606094 136.24146804 70.80744714 146.89669539 58.96875 155.921875 C46.63644059 164.08296211 33.72990618 164.96067165 19.3125 163.6796875 C14.8563946 162.61916295 11.25114992 160.98895546 7.3125 158.6796875 C6.384375 158.17179688 5.45625 157.66390625 4.5 157.140625 C-26.9034234 138.73472962 -39.27359722 97.53155673 -48.4609375 64.57421875 C-51.09502018 54.41272646 -52.07574568 44.74430342 -52.125 34.2421875 C-52.17430664 32.39270508 -52.17430664 32.39270508 -52.22460938 30.50585938 C-52.28456323 20.18834611 -49.99184333 9.89602738 -42.59375 2.21484375 C-29.39603138 -8.41364686 -14.63097539 -7.18789198 0 0 Z " fill="#013FFD" transform="translate(713.6875,798.3203125)"/>
<path d="M0 0 C7.15778506 4.91599046 13.93554855 10.2593285 20.53686523 15.89892578 C21.63377283 16.81128495 22.73147069 17.7226946 23.82983398 18.63330078 C42.08019256 33.86836048 67.2675546 55.6079758 69.84545898 80.93017578 C70.17993436 89.93060399 68.8490795 96.51231379 63.53686523 103.89892578 C56.90811798 111.00299019 47.18292166 115.1114926 37.53686523 115.89892578 C29.39094044 116.16415671 21.63321869 115.60991257 13.59936523 114.27392578 C12.51526367 114.0942627 11.43116211 113.91459961 10.31420898 113.72949219 C-22.74954473 107.97527627 -59.16203742 94.73432265 -83.46313477 70.89892578 C-84.09993164 70.28662109 -84.73672852 69.67431641 -85.39282227 69.04345703 C-96.52010128 57.44635957 -100.0010343 43.27681559 -99.70532227 27.75830078 C-99.26130894 16.17878496 -94.13547861 5.5800925 -86.21313477 -2.91357422 C-60.29390555 -26.58146726 -26.4812819 -17.5470555 0 0 Z " fill="#FB7800" transform="translate(161.463134765625,247.10107421875)"/>
<path d="M0 0 C10.81976579 11.31157333 11.29765648 23.06849802 11.046875 37.94921875 C9.80196865 75.10763241 -7.5795621 122.922459 -35.140625 149.10546875 C-48.68265278 160.46572538 -62.55976913 164.28994471 -79.92578125 163.11425781 C-84.86910923 162.60538581 -88.9129952 161.24767958 -93.25 158.875 C-94.1678125 158.38902344 -95.085625 157.90304687 -96.03125 157.40234375 C-108.31212667 150.26661459 -115.76780336 140.06637064 -120.0625 126.6875 C-125.26969914 105.740358 -117.80090263 85.56996355 -107.125 67.8125 C-101.98669054 59.51394648 -96.01234316 52.01983298 -89.69580078 44.59716797 C-87.75233586 42.28220655 -85.91804546 39.8857013 -84.0625 37.5 C-65.29753173 14.7139671 -31.49967124 -20.59593889 0 0 Z " fill="#FB7800" transform="translate(351.25,799.125)"/>
<path d="M0 0 C31.7051196 21.50117307 46.13872423 64.28734471 54.1171875 100.1484375 C56.83595969 115.52998426 58.63607501 134.95592352 50.375 148.8125 C49.75818359 149.85857422 49.75818359 149.85857422 49.12890625 150.92578125 C45.07820332 156.53906988 38.82181608 159.68362141 32.375 161.8125 C23.30475406 163.13714015 15.59066802 161.68804578 7.375 157.8125 C6.529375 157.43480469 5.68375 157.05710938 4.8125 156.66796875 C-14.76126902 147.0267224 -31.40561233 128.75862993 -44.625 111.8125 C-45.58543927 110.64977412 -46.54920323 109.48978944 -47.515625 108.33203125 C-64.53026506 87.81271449 -78.66609532 63.47066984 -76.84814453 36.01904297 C-75.64084809 24.08080969 -69.56675906 12.71537102 -60.84375 4.5078125 C-42.5166863 -9.49561293 -20.14112454 -12.02872715 0 0 Z " fill="#FB7800" transform="translate(306.625,69.1875)"/>
<path d="M0 0 C0.62535645 0.30115723 1.25071289 0.60231445 1.89501953 0.91259766 C20.00199855 9.70312274 36.10023716 23.30422328 44.5 41.9375 C48.35312271 53.85971824 47.43994882 68.45633281 42.61328125 79.91796875 C36.1543324 92.2572197 27.7124886 100.46291279 15 106 C13.79923828 106.53173828 13.79923828 106.53173828 12.57421875 107.07421875 C-2.81793858 112.60978975 -20.14363503 108.58827452 -34.5 102.25 C-36.67758672 101.18878765 -38.84428498 100.1049653 -41 99 C-42.08667969 98.44828125 -43.17335938 97.8965625 -44.29296875 97.328125 C-73.4031384 81.65084146 -109.4118994 51.85609122 -121 20 C-121.26167969 19.2884375 -121.52335938 18.576875 -121.79296875 17.84375 C-124.3161134 9.58002792 -124.06761075 1.42731804 -120.4375 -6.375 C-115.88243278 -14.54638523 -109.24172963 -19.83872017 -100.22241211 -22.53051758 C-67.20024681 -29.50641826 -29.05592363 -14.28656577 0 0 Z " fill="#013FFD" transform="translate(916,685)"/>
<path d="M0 0 C10.43528468 8.13316092 17.05642636 18.1986061 20.125 31.1875 C22.65992484 59.89699765 9.20660092 84.07994443 -8.3125 105.8125 C-9.82752624 107.60907979 -11.34869966 109.40048832 -12.875 111.1875 C-13.77570824 112.2726342 -14.67539671 113.35861543 -15.57421875 114.4453125 C-31.74056177 133.84163383 -52.39259983 157.11558853 -78.98046875 160.59375 C-88.43841286 160.88144412 -95.99871295 158.72931248 -103.0390625 152.171875 C-110.48245405 143.36650117 -112.557324 133.38690407 -112.3125 122.125 C-112.29783691 121.03155273 -112.28317383 119.93810547 -112.26806641 118.81152344 C-112.05086478 109.37362869 -111.05792655 100.36775277 -108.875 91.1875 C-108.68695801 90.39520996 -108.49891602 89.60291992 -108.30517578 88.78662109 C-100.49878998 57.07046176 -86.37478798 17.34914946 -57.41796875 -1.06640625 C-38.98989608 -12.20987232 -18.01303759 -12.35806503 0 0 Z " fill="#013FFD" transform="translate(773.875,70.8125)"/>
<path d="M0 0 C5.81594104 4.83170487 9.79478055 10.51210751 13.34765625 17.1484375 C13.78335938 17.94378906 14.2190625 18.73914063 14.66796875 19.55859375 C19.53428928 30.29512611 19.24733024 45.30530022 15.28515625 56.2734375 C14.36698488 58.26109898 13.38868229 60.2222751 12.34765625 62.1484375 C11.83976563 63.09847656 11.331875 64.04851562 10.80859375 65.02734375 C-6.9452971 95.27627152 -48.44273984 109.16199417 -80.421875 117.57861328 C-81.52595703 117.86067627 -81.52595703 117.86067627 -82.65234375 118.1484375 C-83.33425781 118.32487793 -84.01617188 118.50131836 -84.71875 118.68310547 C-94.21371929 121.02665342 -103.70760032 121.4905168 -113.46484375 121.6484375 C-114.58576416 121.67921387 -115.70668457 121.70999023 -116.86157227 121.74169922 C-126.90293785 121.74318036 -136.70940052 118.99631804 -144.1875 111.95703125 C-150.90850632 103.65882878 -152.54762428 94.53873548 -151.65234375 84.1484375 C-150.72021943 80.27080032 -149.31501555 76.76750229 -147.65234375 73.1484375 C-147.08580078 71.87613281 -147.08580078 71.87613281 -146.5078125 70.578125 C-136.86153584 51.05242903 -118.62317528 34.2918049 -101.65234375 21.1484375 C-100.57621246 20.27317958 -99.50209793 19.39543798 -98.4296875 18.515625 C-83.96802856 6.74489118 -67.86827672 -4.12543556 -49.65234375 -8.8515625 C-48.45609375 -9.2434375 -47.25984375 -9.6353125 -46.02734375 -10.0390625 C-29.69710257 -13.99690099 -13.46819131 -9.40194799 0 0 Z " fill="#013FFD" transform="translate(944.65234375,240.8515625)"/>
<path d="M0 0 C9.05531439 6.09879294 13.9715411 14.93499304 16.28515625 25.5390625 C17.59310679 34.41581506 17.52859563 43.33592579 17.53515625 52.2890625 C17.53583099 53.11442505 17.53650574 53.9397876 17.53720093 54.79016113 C17.50303569 81.10952561 14.9571535 111.5033655 -4.40625 131.421875 C-13.79043923 140.02801809 -24.66312521 144.39282985 -37.484375 143.91796875 C-50.28670295 142.41636559 -60.6931791 135.87658036 -68.95703125 126.140625 C-77.68421834 113.2243881 -78.64175582 96.3855828 -75.79101562 81.42285156 C-70.61054426 58.35741951 -58.84531003 35.40421627 -44.71484375 16.5390625 C-43.97234375 15.53746094 -43.22984375 14.53585937 -42.46484375 13.50390625 C-32.06039554 0.0828906 -16.42861384 -9.32083004 0 0 Z " fill="#61C90A" transform="translate(481.71484375,655.4609375)"/>
<path d="M0 0 C0.66128906 0.44988281 1.32257812 0.89976562 2.00390625 1.36328125 C13.00401998 9.96337017 20.60870565 23.86076477 27 36 C27.33628418 36.63550781 27.67256836 37.27101563 28.01904297 37.92578125 C32.97907718 47.37524052 37.39136443 56.95347316 41 67 C41.41507813 68.12019531 41.83015625 69.24039063 42.2578125 70.39453125 C44.87132217 78.53661908 45.40620398 86.23707335 45.5 94.75 C45.51853027 95.79140137 45.53706055 96.83280273 45.55615234 97.90576172 C45.4598907 109.80634324 41.34181558 120.22081783 33.1875 128.9375 C23.40112981 138.09249147 12.01692983 141.52122374 -1.2109375 141.3125 C-12.15943819 140.40953087 -21.47249173 134.87744036 -29.0625 127.125 C-41.64465657 112.20723352 -45.51548305 92.79538087 -48 74 C-48.09788818 73.31389648 -48.19577637 72.62779297 -48.29663086 71.92089844 C-49.21056081 64.88013213 -49.1838414 57.8403719 -49.1875 50.75 C-49.20586914 48.89955078 -49.20586914 48.89955078 -49.22460938 47.01171875 C-49.24993902 30.95272345 -47.47039772 14.82171544 -37 2 C-26.25831088 -7.23821492 -11.78518855 -8.0570094 0 0 Z " fill="#00BB63" transform="translate(574,658)"/>
<path d="M0 0 C2.23833737 1.67214748 4.25411614 3.40619966 6.25390625 5.35546875 C6.81464844 5.90074219 7.37539063 6.44601563 7.953125 7.0078125 C17.42573755 17.14851863 19.7773831 29.30053683 19.49609375 42.671875 C18.23088527 73.49410742 -0.45117261 110.26100786 -22.74609375 131.23046875 C-30.04630875 137.58727135 -37.31063686 140.8240536 -47.0234375 140.6953125 C-54.22064388 139.79695245 -60.40767542 135.63027195 -65.21875 130.34375 C-75.51535859 116.939725 -75.29726134 99.53484696 -75.18359375 83.41796875 C-75.1808847 82.51871674 -75.17817566 81.61946472 -75.17538452 80.69296265 C-75.05449881 54.1995788 -72.37687266 25.82522995 -53.2265625 5.6484375 C-37.97979767 -8.44581597 -17.8543909 -10.6923166 0 0 Z " fill="#01BB62" transform="translate(599.74609375,231.64453125)"/>
<path d="M0 0 C16.32258045 12.30069663 22.65818346 31.18329527 25.6875 50.75 C25.85668945 51.81323486 26.02587891 52.87646973 26.20019531 53.97192383 C27.61273237 63.54571594 28.08811299 72.89840865 28.0625 82.5625 C28.06228851 83.30435547 28.06207703 84.04621094 28.06185913 84.81054688 C28.01388262 101.70555454 26.88475709 119.14363467 14.875 132.1875 C8.20999701 138.31979829 1.89913511 139.41109098 -7.07421875 139.15234375 C-18.66674099 137.71201831 -27.28758126 128.5882813 -34.4375 120 C-48.05453597 102.12424959 -58.48384833 80.45458516 -64.3125 58.75 C-64.50320068 58.05318115 -64.69390137 57.3563623 -64.89038086 56.63842773 C-66.38101727 50.67390073 -66.64627325 44.94345137 -66.625 38.8125 C-66.64111328 37.88759766 -66.65722656 36.96269531 -66.67382812 36.00976562 C-66.68193944 24.43492304 -63.12899168 14.23584985 -55.34375 5.5546875 C-39.72717835 -9.32632099 -18.17739777 -11.96313678 0 0 Z " fill="#62C90A" transform="translate(471.3125,232.25)"/>
<path d="M0 0 C2.72942648 2.19417038 5.34874469 4.45808202 7.93359375 6.8203125 C8.62839844 7.44550781 9.32320313 8.07070313 10.0390625 8.71484375 C27.95800351 25.70385968 50.22663109 56.60181488 52.171875 81.921875 C52.36668721 91.17032816 51.57483435 98.41249493 45.55859375 105.6953125 C44.69234375 106.3965625 43.82609375 107.0978125 42.93359375 107.8203125 C41.79664063 108.85478516 41.79664063 108.85478516 40.63671875 109.91015625 C35.48986371 113.28055169 28.97351785 112.5408379 23.05859375 112.5078125 C21.75462646 112.50201172 20.45065918 112.49621094 19.10717773 112.49023438 C8.43908512 112.22976148 0.98909307 110.25153514 -8.06640625 104.8203125 C-9.21109375 104.21832031 -10.35578125 103.61632812 -11.53515625 102.99609375 C-33.21543856 91.35026643 -56.25594376 74.85690715 -68.06640625 52.8203125 C-68.46859375 52.07265625 -68.87078125 51.325 -69.28515625 50.5546875 C-74.41159978 40.66797497 -74.62538431 28.48372274 -72.41796875 17.6328125 C-71.49563297 15.17325042 -70.43141044 13.06281939 -69.06640625 10.8203125 C-68.59203125 9.985 -68.11765625 9.1496875 -67.62890625 8.2890625 C-61.79389003 -1.02452109 -52.5496699 -8.1063253 -41.796875 -10.734375 C-26.12575982 -13.29017919 -12.74131826 -9.0568861 0 0 Z " fill="#E68302" transform="translate(365.06640625,302.1796875)"/>
<path d="M0 0 C1.77905586 0.90325136 3.53361752 1.85768297 5.25 2.875 C5.97058594 3.27460938 6.69117188 3.67421875 7.43359375 4.0859375 C15.22692359 9.09919061 22.48577145 19.41853569 24.8828125 28.3828125 C27.20281628 44.12922115 23.43519743 57.9925119 14.25 70.875 C0.36688656 88.30555028 -18.03004612 100.87681552 -37.1875 111.875 C-37.78860596 112.22449707 -38.38971191 112.57399414 -39.0090332 112.93408203 C-48.99392258 118.50156206 -58.07378471 120.53783784 -69.49487305 120.39648438 C-71.57781895 120.37484082 -73.65738608 120.39648929 -75.74023438 120.421875 C-77.08334084 120.41923446 -78.42644522 120.41411514 -79.76953125 120.40625 C-80.96682861 120.40173828 -82.16412598 120.39722656 -83.39770508 120.39257812 C-88.30636437 119.63470487 -91.47503205 117.41725682 -94.61328125 113.62109375 C-95.09152344 112.85925781 -95.56976562 112.09742188 -96.0625 111.3125 C-96.55363281 110.54808594 -97.04476562 109.78367187 -97.55078125 108.99609375 C-101.78711246 101.50316917 -100.61442325 90.22798849 -98.984375 82.01953125 C-92.39618333 60.74709546 -79.01897805 41.7013509 -64.75 24.875 C-63.69232422 23.61623047 -63.69232422 23.61623047 -62.61328125 22.33203125 C-47.45106697 4.84123956 -23.58110139 -9.44454895 0 0 Z " fill="#014FE9" transform="translate(707.75,294.125)"/>
<path d="M0 0 C17.82 0 35.64 0 54 0 C54 58.74 54 117.48 54 178 C36.18 178 18.36 178 0 178 C-1.90088404 176.09911596 -1.12625073 172.72352354 -1.12698364 170.20483398 C-1.12854363 169.48597991 -1.13010362 168.76712584 -1.13171089 168.0264883 C-1.13572338 165.59966972 -1.13253029 163.17291288 -1.12939453 160.74609375 C-1.13074846 159.01360029 -1.13252835 157.28110712 -1.13470459 155.5486145 C-1.1392799 150.82974167 -1.13748896 146.1108906 -1.1343255 141.39201736 C-1.13180241 136.46503895 -1.1341393 131.53806247 -1.13571167 126.61108398 C-1.13753351 118.3354458 -1.13512667 110.05981652 -1.13037109 101.78417969 C-1.12492845 92.20195139 -1.12669109 82.61974437 -1.1321975 73.03751659 C-1.13672821 64.82608196 -1.13737938 56.61465375 -1.13475883 48.40321827 C-1.13319582 43.49202437 -1.13300293 38.58084048 -1.13629532 33.66964722 C-1.13917343 29.05357741 -1.13719946 24.43753517 -1.13140106 19.82146835 C-1.13007314 18.12225261 -1.13046812 16.42303457 -1.13266373 14.72381973 C-1.13537398 12.41423664 -1.13199567 10.1047433 -1.12698364 7.79516602 C-1.12660662 6.49950211 -1.12622959 5.2038382 -1.12584114 3.86891174 C-1 1 -1 1 0 0 Z " fill="#C73F9A" transform="translate(947,427)"/>
<path d="M0 0 C9.94500667 -0.20958701 19.8894784 -0.36897341 29.83625317 -0.46630955 C34.45633262 -0.51305465 39.07488886 -0.57633352 43.6940918 -0.67895508 C48.16167714 -0.7775741 52.62780857 -0.83072767 57.09639931 -0.85389519 C58.79124121 -0.87037921 60.48601375 -0.90256728 62.18022728 -0.95157051 C74.63076616 -1.29698855 81.47814695 0.74844875 91 9 C92.33603244 10.0539698 93.67386649 11.10567326 95.015625 12.15234375 C96.10115042 13.07206521 97.17952751 14.00030117 98.25 14.9375 C99.12229248 15.69752319 99.12229248 15.69752319 100.01220703 16.47290039 C112.09451469 27.16341464 124.39624431 40.9747454 125.46875 57.83203125 C125.50282584 59.49187043 125.51271213 61.15235974 125.5 62.8125 C125.49427979 63.68688721 125.48855957 64.56127441 125.48266602 65.4621582 C125.17336266 76.72100863 120.91139614 85.9649883 113 94 C103.0466378 102.70919192 91.90501979 105.96821624 78.82421875 105.37890625 C73.33151203 104.83468505 68.92424727 103.44751162 64 101 C63.04867187 100.53722656 62.09734375 100.07445312 61.1171875 99.59765625 C34.31924142 85.28909235 13.25469224 52.94906316 3 25 C2.68160156 24.19691406 2.36320313 23.39382813 2.03515625 22.56640625 C0.19585956 17.4045091 -0.15490502 12.62488083 -0.07421875 7.17578125 C-0.06886108 6.4837561 -0.06350342 5.79173096 -0.0579834 5.07873535 C-0.04410065 3.38577016 -0.02280631 1.6928685 0 0 Z " fill="#014DEB" transform="translate(607,628)"/>
<path d="M0 0 C1.75545148 0.01494978 3.5109367 0.02632385 5.26643372 0.03430176 C9.85233242 0.06462172 14.43615369 0.14300391 19.02124023 0.23193359 C23.71374416 0.31426537 28.40658896 0.3504135 33.09960938 0.390625 C42.28215504 0.47602348 51.46316937 0.61227934 60.64453125 0.78125 C60.67340596 3.00252679 60.69391145 5.2239133 60.7109375 7.4453125 C60.72942749 9.3008374 60.72942749 9.3008374 60.74829102 11.19384766 C59.94088065 39.10934878 34.82649749 70.28046154 15.64453125 88.78125 C1.4589441 100.87963487 -11.46594857 105.98873585 -29.96044922 105.01953125 C-39.90932116 104.02971484 -49.09123892 97.94321243 -55.359375 90.35546875 C-63.49094912 79.16818828 -65.33786331 68.478637 -64.35546875 54.78125 C-60.34013687 36.20429286 -45.81164186 21.48378525 -31.22138977 10.26654053 C-29.26614383 8.7535248 -29.26614383 8.7535248 -27.24967957 6.78863525 C-18.60431615 -0.67857067 -10.82281737 -0.27285774 0 0 Z " fill="#EA8202" transform="translate(355.35546875,627.21875)"/>
<path d="M0 0 C6.52310715 2.65963596 8.85637757 9.394278 11.54296875 15.515625 C23.02387488 43.9165349 31.24874331 81.35184972 21 111 C18.23192343 117.06640158 14.6317737 120.92470074 8.8125 124.25 C2.98760697 125.80330481 -2.76170296 125.89808957 -8.3125 123.375 C-16.1761059 118.81822233 -19.24203887 111.46374219 -21.54394531 103 C-28.65780581 73.83189937 -19.90959674 31.94426452 -4.75 6.125 C-3.27157995 3.78019401 -1.96415274 1.96415274 0 0 Z " fill="#FCFEFC" transform="translate(511,870)"/>
<path d="M0 0 C5.36146447 3.15445831 8.56147127 7.48600757 10.5625 13.375 C12.90810681 30.39428659 2.85831567 46.40185677 -6.8125 59.5625 C-19.58406031 75.94823449 -33.24457588 92.92483941 -50.75 104.375 C-51.33692627 104.76131592 -51.92385254 105.14763184 -52.52856445 105.5456543 C-55.79905485 107.61031773 -58.58450687 108.91235167 -62.4375 109.375 C-69.55010572 95.14978856 -60.12787252 71.48255488 -55.609375 57.69921875 C-49.87171582 40.90473543 -43.15918729 22.96429366 -31.4375 9.375 C-30.85355469 8.69308594 -30.26960937 8.01117188 -29.66796875 7.30859375 C-21.79616605 -1.20290398 -11.16808702 -5.02458358 0 0 Z " fill="#FCFDFF" transform="translate(754.4375,92.625)"/>
<path d="M0 0 C19.47129566 9.12249643 28.3172297 33.7991142 35.35546875 52.69140625 C42.10188703 71.5381502 46.36081084 89.03393568 45.23046875 109.12890625 C41.54150391 110.25097656 41.54150391 110.25097656 38.7421875 109.15234375 C25.17882694 101.23569346 12.72151671 90.21963622 2.91796875 77.94140625 C0.58042911 75.02542459 -1.76253998 72.13694732 -4.21484375 69.31640625 C-16.77407297 54.82801642 -29.33284504 36.78053929 -29.0390625 16.91015625 C-28.52633979 11.61945231 -26.73870812 7.91128373 -22.79296875 4.33984375 C-15.65595763 -1.13619023 -8.92179227 -2.80614905 0 0 Z " fill="#FEFDFC" transform="translate(287.76953125,91.87109375)"/>
<path d="M0 0 C7.45524269 5.67176869 10.81652291 14.74602919 12.40234375 23.71484375 C14.05030214 38.43660537 12.21335712 52.85097761 9.8125 67.37890625 C9.67859863 68.22211426 9.54469727 69.06532227 9.40673828 69.93408203 C7.75790118 80.08492278 5.25483853 89.76692513 1.9375 99.50390625 C1.62208252 100.43968506 1.30666504 101.37546387 0.98168945 102.33959961 C-4.72140496 118.35372859 -4.72140496 118.35372859 -10.37451172 121.65673828 C-10.97279785 121.89505371 -11.57108398 122.13336914 -12.1875 122.37890625 C-28.21746717 104.07518487 -30.7603198 76.43934019 -34.1875 53.37890625 C-34.36200684 52.22237549 -34.36200684 52.22237549 -34.54003906 51.04248047 C-36.71671311 35.41177634 -36.82721936 17.6301261 -27.1875 4.37890625 C-19.9461052 -3.41657945 -9.34335548 -5.40633674 0 0 Z " fill="#FCFEFC" transform="translate(523.1875,31.62109375)"/>
<path d="M0 0 C9.07725192 6.15674478 17.43229741 13.02481872 25.3984375 20.55078125 C27.58924509 22.61329831 29.82079707 24.56759077 32.125 26.5 C39.50980842 32.96744091 45.72059322 40.16923463 51.0625 48.375 C51.44462646 48.95773682 51.82675293 49.54047363 52.22045898 50.14086914 C54.26326955 53.39315847 55.53458973 56.17647561 56 60 C41.91202129 67.04398935 17.81948787 57.60914317 4.18359375 53.13671875 C-42.47352381 37.13094402 -42.47352381 37.13094402 -53.3359375 17.59765625 C-55.93672401 11.93352723 -56.98677772 7.01289341 -55 1 C-52.10642785 -4.80587293 -48.76330818 -8.9930566 -43 -12 C-27.67031611 -16.62723518 -12.52641715 -8.11804203 0 0 Z " fill="#FEFDFC" transform="translate(146,272)"/>
<path d="M0 0 C1 2 1 2 0.50390625 3.77734375 C-12.33736653 33.24300288 -46.35746532 59.61913812 -75.5390625 71.72265625 C-82.99444943 74.4742494 -91.81000372 75.77512819 -99.3125 72.5 C-104.67981577 69.3920266 -107.76492733 64.52384415 -110.4375 59.0625 C-111.82380863 51.51481969 -110.08589109 45.84149184 -105.90234375 39.47265625 C-88.24641415 16.52357322 -49.47314602 4.72589619 -22.0625 0.375 C-14.75112417 -0.36130463 -7.33845258 -0.07582787 0 0 Z " fill="#FEFDFC" transform="translate(201,691)"/>
<path d="M0 0 C30.40303398 0.49571758 69.42428462 14.45950856 91.74926758 35.31469727 C97.7123535 42.10667688 100.23951891 47.1508635 100.06176758 56.27172852 C99.46073992 62.12423535 97.18314643 66.29273162 92.81176758 70.18969727 C86.2885615 74.71600353 80.52058692 75.05437706 72.74926758 74.31469727 C59.27150365 71.37633359 47.49871332 63.65755068 36.74926758 55.31469727 C35.9062207 54.66500977 35.06317383 54.01532227 34.19458008 53.34594727 C28.97851256 49.25109052 24.00976563 44.93333022 19.11645508 40.45922852 C17.03032272 38.56931652 14.90276997 36.7515798 12.74926758 34.93969727 C5.32998143 28.41609958 -0.93594674 21.19980857 -6.31323242 12.93969727 C-6.88642212 12.06559204 -6.88642212 12.06559204 -7.47119141 11.17382812 C-9.50178333 7.94099168 -10.9094765 5.14512093 -11.25073242 1.31469727 C-8.96826112 -0.96777404 -3.16027526 0.00284795 0 0 Z " fill="#FCFDFF" transform="translate(833.250732421875,690.685302734375)"/>
<path d="M0 0 C27.73306586 9.14409113 53.94599151 42.16232735 66.88671875 67.58984375 C71.55076523 77.44871198 75.28386161 87.34156262 72.3828125 98.33984375 C70.03114065 103.76117575 66.01377267 107.02468111 61 110 C55.25465704 111.91511432 48.97884292 112.1165334 43.26953125 109.9765625 C19.74570024 96.77404029 9.53334351 61.92111211 2.38671875 37.671875 C-0.97211938 25.43342827 -1.87571557 13.66034509 -1 1 C-0.67 0.67 -0.34 0.34 0 0 Z " fill="#FCFDFF" transform="translate(692,822)"/>
<path d="M0 0 C5.72912535 6.09020468 7.37237965 10.60708568 7.2734375 18.8984375 C6.87826019 23.38087725 5.55839241 26.34735541 3 30 C2.57203125 30.63164062 2.1440625 31.26328125 1.703125 31.9140625 C-15.74782988 54.49235979 -54.78046709 64.95478521 -81.36328125 69.5859375 C-85.74545974 70.08487512 -90.03247571 70.10864449 -94.4375 70.0625 C-95.26443359 70.05798828 -96.09136719 70.05347656 -96.94335938 70.04882812 C-98.96227146 70.03715811 -100.98114574 70.01922718 -103 70 C-104.12646484 66.31542969 -104.12646484 66.31542969 -102.98828125 63.4765625 C-96.31056934 52.11355622 -87.69162508 41.937046 -78 33 C-77.45988281 32.50113281 -76.91976562 32.00226563 -76.36328125 31.48828125 C-74.27501082 29.61744462 -72.14392969 27.80697926 -70 26 C-69.17798096 25.29931396 -69.17798096 25.29931396 -68.33935547 24.58447266 C-21.71391544 -15.00083471 -21.71391544 -15.00083471 0 0 Z " fill="#FCFDFF" transform="translate(926,263)"/>
<path d="M0 0 C1.06764824 34.52062631 -11.41791693 76.50801117 -35.23828125 102.3828125 C-41.76943906 108.3781547 -48.05839058 110.48467466 -56.8515625 110.41015625 C-62.5649521 109.66585612 -66.68723885 106.67894833 -70.40625 102.37109375 C-74.68199715 96.27815407 -74.58510185 90.17385747 -74 83 C-67.62200698 52.5318805 -37.79178043 21.23733222 -13 4 C-4.09669811 -1.36556604 -4.09669811 -1.36556604 0 0 Z " fill="#FEFDFC" transform="translate(333,823)"/>
<path d="M0 0 C6.27049691 2.75901864 9.11579857 8.05186946 12 14 C13.24949611 17.28682711 14.17761563 20.58351728 15 24 C15.18175781 24.70511719 15.36351562 25.41023438 15.55078125 26.13671875 C18.39560459 37.88518765 19.34433194 49.69206264 19.3125 61.75 C19.32861328 62.98621094 19.34472656 64.22242188 19.36132812 65.49609375 C19.36523305 72.84516377 18.63338977 79.11711821 16 86 C-0.08548519 78.57319028 -8.51500325 50.08263607 -14.28515625 34.94921875 C-16.52101797 28.75769 -17.185423 23.08125082 -17.3125 16.5 C-17.34988281 15.2315625 -17.38726562 13.963125 -17.42578125 12.65625 C-16.82613464 7.50699108 -14.69420575 4.41183813 -10.75 1.125 C-7.0897014 -0.37239488 -3.85885057 -0.64694733 0 0 Z " fill="#FCFEFB" transform="translate(451,254)"/>
<path d="M0 0 C17.0088941 13.19057093 28.46415767 39.23235828 33 60 C33.1456986 62.63938612 33.23062681 65.2354028 33.25 67.875 C33.270625 68.56980469 33.29125 69.26460937 33.3125 69.98046875 C33.34848503 74.75748106 32.50541513 77.94390318 30 82 C26.75953856 84.93666818 24.06485065 85.89954239 19.6875 86.3125 C15.09273517 85.92311315 13.44326536 85.07696053 10 82 C1.98443549 71.58576282 -0.49617277 58.77461658 -2 46 C-2.11214844 45.09378906 -2.22429688 44.18757812 -2.33984375 43.25390625 C-3.74999548 29.6353176 -4.5989284 14.34493158 -1 1 C-0.67 0.67 -0.34 0.34 0 0 Z " fill="#FBFDFC" transform="translate(557,684)"/>
<path d="M0 0 C4.66401517 1.77232576 7.21451716 3.87335875 10 8 C15.67335889 25.02007666 4.40985576 45.42798928 -2.98657227 60.23803711 C-7.68558457 69.3741333 -12.6929325 78.65203474 -20 86 C-20.99 86 -21.98 86 -23 86 C-25.31488234 77.72729298 -25.35493891 69.5869981 -25.3125 61.0625 C-25.31026428 59.96125793 -25.31026428 59.96125793 -25.3079834 58.83776855 C-25.26707305 47.64726229 -24.69799287 36.89618578 -22 26 C-21.70996094 24.79730469 -21.41992188 23.59460938 -21.12109375 22.35546875 C-18.83433619 13.98344841 -15.67071357 7.13540118 -9 1.4375 C-5.57270345 -0.20474626 -3.75129037 -0.54706318 0 0 Z " fill="#FBFDFC" transform="translate(579,254)"/>
<path d="M0 0 C1.80389003 4.64909007 2.26798398 8.56429853 2.30078125 13.5390625 C2.3091803 14.61102119 2.3091803 14.61102119 2.31774902 15.70463562 C2.32962043 18.01164023 2.3234093 20.31799648 2.3125 22.625 C2.31067719 23.41111664 2.30885437 24.19723328 2.30697632 25.00717163 C2.1365375 68.52236642 2.1365375 68.52236642 -12 83 C-14.45131749 85.18631019 -15.86330575 85.95428286 -19.13671875 86.0859375 C-24.1968423 85.76811156 -27.46486017 84.84706394 -31 81 C-35.00577762 75.47478949 -34.65540703 69.53147002 -34 63 C-31.8996077 51.2298771 -27.09516378 40.71867867 -22 30 C-21.69658691 29.34547852 -21.39317383 28.69095703 -21.08056641 28.01660156 C-8.08893857 0 -8.08893857 0 0 0 Z " fill="#FCFEFB" transform="translate(468,684)"/>
<path d="M0 0 C22.08271085 6.74060275 36.60824768 32.79713558 47 52 C49.49086727 57.13573977 51.23248118 61.23850985 51 67 C45.30480972 65.74705814 40.42741944 64.03789306 35.25 61.375 C34.55608154 61.02163574 33.86216309 60.66827148 33.1472168 60.30419922 C21.88475195 54.45441038 11.91624064 46.85035717 2 39 C1.3090625 38.47792969 0.618125 37.95585937 -0.09375 37.41796875 C-7.18123246 31.82852236 -13.71515529 23.5506017 -15.4765625 14.5703125 C-15.71236292 10.68581086 -15.7400621 8.05669627 -13.45703125 4.796875 C-9.20398184 0.74948562 -5.99251681 -1.15645061 0 0 Z " fill="#FEFDFB" transform="translate(336,320)"/>
<path d="M0 0 C-4.54016015 18.76599527 -16.22830738 34.13049353 -28 49 C-28.52207031 49.6909375 -29.04414063 50.381875 -29.58203125 51.09375 C-35.06301345 58.04369861 -43.34962517 64.778023 -52.2109375 66.40625 C-56.55587123 66.59447818 -59.45292534 66.19726122 -63 63.5625 C-66.16557635 60.43373268 -67.06630157 57.69325632 -67.19140625 53.28515625 C-66.26754588 42.2553947 -57.8302895 34.26799864 -49.8125 27.4375 C-16.74728736 0 -16.74728736 0 0 0 Z " fill="#FEFDFB" transform="translate(387,637)"/>
<path d="M0 0 C3.42202675 2.04327913 6.20464037 4.40928074 8 8 C8.88148332 16.22717767 6.03737513 21.80227931 1.26171875 28.40234375 C-12.04188716 44.3408386 -37.88043535 63.65338171 -59 66 C-57.74705814 60.30480972 -56.03789306 55.42741944 -53.375 50.25 C-53.02163574 49.55608154 -52.66827148 48.86216309 -52.30419922 48.1472168 C-48.99187426 41.7700732 -45.21369453 35.82298377 -41 30 C-40.23945312 28.94167969 -39.47890625 27.88335937 -38.6953125 26.79296875 C-16.17118871 -3.8629693 -16.17118871 -3.8629693 0 0 Z " fill="#FBFCFE" transform="translate(696,321)"/>
<path d="M0 0 C18.41062778 1.25527008 35.15462292 15.8682376 49 27 C50.02673828 27.77730469 50.02673828 27.77730469 51.07421875 28.5703125 C57.51391788 33.6352444 64.96470747 42.05702267 66.40625 50.33203125 C66.58986177 55.19009264 66.36960482 58.24081579 63.1875 62.0625 C60.33768706 65.05304444 58.08192041 65.86751995 53.9375 66.375 C42.68206275 65.3030536 34.55887944 57.20715307 27.625 48.9375 C0 14.13285284 0 14.13285284 0 0 Z " fill="#FCFCFE" transform="translate(637,638)"/>
<path d="M0 0 C1.76803854 -0.01645287 3.53601357 -0.04359948 5.30371094 -0.08203125 C24.27816555 -0.49230901 24.27816555 -0.49230901 32.23852539 5.35009766 C32.79741455 5.74471191 33.35630371 6.13932617 33.93212891 6.54589844 C37.3629373 9.67183711 37.739925 13.28169219 38.05102539 17.66259766 C37.80126001 23.89959594 35.97117295 27.14990513 31.76977539 31.64306641 C25.87764937 35.61661435 19.01087154 35.63513616 12.14477539 35.54541016 C10.8965802 35.54116531 10.8965802 35.54116531 9.62316895 35.53683472 C6.99480108 35.52574051 4.36678829 35.50065691 1.73852539 35.47509766 C-0.05574048 35.46505391 -1.85001176 35.45593052 -3.64428711 35.44775391 C-8.0168174 35.42583659 -12.38908604 35.39138256 -16.76147461 35.35009766 C-16.78612651 30.52628964 -16.80431154 25.70251799 -16.81640625 20.87866211 C-16.82144635 19.23640301 -16.82827839 17.59414842 -16.83691406 15.9519043 C-16.84899386 13.59634287 -16.854706 11.24084057 -16.85913086 8.88525391 C-16.86429214 8.1467067 -16.86945343 7.40815948 -16.87477112 6.64723206 C-16.87496711 4.88111678 -16.8234218 3.1151262 -16.76147461 1.35009766 C-13.9417867 -1.46959026 -3.98272016 0.02711078 0 0 Z " fill="#050103" transform="translate(835.761474609375,530.64990234375)"/>
<path d="M0 0 C4.55318701 -0.07468636 9.10600998 -0.12885256 13.65966797 -0.16479492 C15.20562968 -0.1797933 16.75154948 -0.20019887 18.29736328 -0.22631836 C37.26108042 -0.5385035 37.26108042 -0.5385035 42.53491211 4.45263672 C47.04068798 9.62427921 47.39557463 13.25976736 47.35546875 19.94140625 C46.81350336 24.60469084 45.17902359 26.59918406 42 30 C36.50359593 33.66426938 31.06668911 34.25172598 24.5703125 34.23046875 C23.89451141 34.23001053 23.21871033 34.22955231 22.52243042 34.2290802 C21.10901103 34.22608302 19.69559418 34.21827382 18.28222656 34.20581055 C16.10990863 34.1873719 13.93801361 34.18530246 11.765625 34.18554688 C1.14770776 34.14770776 1.14770776 34.14770776 0 33 C-0.08843793 30.55169574 -0.11528752 28.13179401 -0.09765625 25.68359375 C-0.0962413 24.95253922 -0.09482635 24.22148468 -0.09336853 23.46827698 C-0.08775408 21.12464368 -0.07519922 18.78110461 -0.0625 16.4375 C-0.05748686 14.85221492 -0.05292363 13.26692834 -0.04882812 11.68164062 C-0.03777997 7.7877239 -0.02050572 3.89387795 0 0 Z " fill="#070103" transform="translate(819,464)"/>
<path d="M0 0 C0.99 0 1.98 0 3 0 C3.17668213 0.66064453 3.35336426 1.32128906 3.53540039 2.00195312 C5.38849335 8.87124986 7.36617414 15.69355892 9.4375 22.5 C9.72431641 23.45519531 10.01113281 24.41039062 10.30664062 25.39453125 C12.06291141 31.17575223 13.9929208 36.85330203 16.13427734 42.50366211 C17.24181168 45.69727141 17.96416899 48.90827525 18.60546875 52.22265625 C18.94506059 54.09242234 18.94506059 54.09242234 20 56 C20 57.98 20 59.96 20 62 C7.79 62 -4.42 62 -17 62 C-18.15245443 58.54263672 -17.80915365 57.53727164 -16.80859375 54.1171875 C-16.52483887 53.13717773 -16.24108398 52.15716797 -15.94873047 51.14746094 C-15.63564941 50.10879883 -15.32256836 49.07013672 -15 48 C-14.69078613 46.96907227 -14.38157227 45.93814453 -14.06298828 44.87597656 C-13.07530666 41.62167304 -12.07142469 38.37277662 -11.0625 35.125 C-10.72798828 34.04347656 -10.39347656 32.96195312 -10.04882812 31.84765625 C-9.37496117 29.66894961 -8.70032357 27.49048116 -8.02490234 25.31225586 C-6.64245218 20.84448516 -5.27225456 16.3729769 -3.90307617 11.90112305 C-2.66163876 7.91301795 -1.34090608 3.95567293 0 0 Z " fill="#0A0202" transform="translate(289,476)"/>
<path d="M0 0 C1.32 0.33 2.64 0.66 4 1 C4.31453125 2.17175781 4.6290625 3.34351563 4.953125 4.55078125 C7.06397939 12.33010047 9.24158843 19.9775994 12.10546875 27.51953125 C13.32591702 30.90374369 14.23301731 34.34114969 15.140625 37.8203125 C15.82435223 40.35010326 16.54471612 42.85747686 17.296875 45.3671875 C17.64020874 46.51356689 17.64020874 46.51356689 17.99047852 47.68310547 C18.4487837 49.2065087 18.91012347 50.72900289 19.37475586 52.25048828 C20.27929921 55.26748187 21 57.83174548 21 61 C8.46 61 -4.08 61 -17 61 C-15.87327356 53.11291495 -15.87327356 53.11291495 -14.9140625 49.84375 C-14.70523438 49.13089844 -14.49640625 48.41804687 -14.28125 47.68359375 C-14.0646875 46.96300781 -13.848125 46.24242187 -13.625 45.5 C-13.41617188 44.77941406 -13.20734375 44.05882812 -12.9921875 43.31640625 C-11.96829525 39.86389151 -10.85353538 36.54656086 -9.390625 33.25390625 C-8.21736344 30.50860603 -7.55283278 28.35406736 -7.125 25.4375 C-6.11593886 19.80573143 -4.15468561 14.63128215 -2.12109375 9.296875 C-1.06143199 6.18065713 -0.43899263 3.25545097 0 0 Z " fill="#060102" transform="translate(660,476)"/>
</svg>
